<svg width="30" height="31" viewBox="0 0 30 31" fill="none" xmlns="http://www.w3.org/2000/svg">
<path id="Vector" d="M29.6481 27.8356L21.3044 19.4138C22.9372 17.367 23.9216 14.7733 23.9216 11.953C23.9216 5.3515 18.5701 0 11.9608 0C5.3515 0 0 5.35931 0 11.9608C0 18.5623 5.3515 23.9138 11.9608 23.9138C14.8201 23.9138 17.4373 22.9138 19.4998 21.2419L27.7887 29.609C28.0387 29.8746 28.3825 30.0074 28.7184 30.0074C29.0387 30.0074 29.359 29.8903 29.6012 29.6559C30.1168 29.1637 30.1324 28.3512 29.6481 27.8356ZM11.9608 21.3435C9.45301 21.3435 7.09366 20.3669 5.32025 18.5935C3.54683 16.8201 2.57028 14.4608 2.57028 11.9608C2.57028 9.45301 3.54683 7.09366 5.32025 5.32806C7.09366 3.55464 9.45301 2.57809 11.9608 2.57809C14.4686 2.57809 16.8279 3.55464 18.6013 5.32806C20.3748 7.10148 21.3513 9.46082 21.3513 11.9608C21.3513 14.4686 20.3748 16.8279 18.6013 18.5935C16.8279 20.3669 14.4686 21.3435 11.9608 21.3435Z" fill="#004369"/>
</svg>
